<svg width="1716" height="675" viewBox="0 0 1716 675" fill="none" xmlns="http://www.w3.org/2000/svg">
<g opacity="0.6">
<path d="M1703.3 590.921L1703.3 579L1735 579L1735 610.699L1723.17 610.699L1723.17 590.921L1703.3 590.921Z" fill="white"/>
<path d="M1681.9 612.326L1681.9 600.495L1713.6 600.495L1713.6 632.104L1701.68 632.104L1701.68 612.326L1681.9 612.326Z" fill="white"/>
<path d="M1660.49 633.818L1660.49 621.897L1692.1 621.897L1692.1 653.596L1680.27 653.596L1680.27 633.818L1660.49 633.818Z" fill="white"/>
<path d="M1639 655.222L1639 643.301L1670.7 643.301L1670.7 675L1658.78 675L1658.78 655.222L1639 655.222Z" fill="white"/>
</g>
<g clip-path="url(#clip0_2502_456)">
<path d="M1053.08 108.86C1053.08 110.025 1052.21 110.898 1051.04 110.898C1049.87 110.898 1049 110.025 1049 108.86C1049 107.696 1049.87 106.822 1051.04 106.822C1052.21 106.822 1053.08 107.793 1053.08 108.86Z" fill="white"/>
<path d="M1070.47 108.86C1070.47 110.025 1069.6 110.898 1068.43 110.898C1067.26 110.898 1066.39 110.025 1066.39 108.86C1066.39 107.696 1067.26 106.822 1068.43 106.822C1069.5 106.822 1070.47 107.793 1070.47 108.86Z" fill="white"/>
<path d="M1087.76 108.86C1087.76 110.025 1086.89 110.898 1085.72 110.898C1084.56 110.898 1083.68 110.025 1083.68 108.86C1083.68 107.696 1084.56 106.822 1085.72 106.822C1086.89 106.822 1087.76 107.793 1087.76 108.86Z" fill="white"/>
<path d="M1105.15 108.86C1105.15 110.025 1104.28 110.898 1103.11 110.898C1101.95 110.898 1101.07 110.025 1101.07 108.86C1101.07 107.696 1101.95 106.822 1103.11 106.822C1104.28 106.822 1105.15 107.793 1105.15 108.86Z" fill="white"/>
<path d="M1122.54 108.86C1122.54 110.025 1121.67 110.898 1120.5 110.898C1119.33 110.898 1118.46 110.025 1118.46 108.86C1118.46 107.696 1119.33 106.822 1120.5 106.822C1121.57 106.822 1122.54 107.793 1122.54 108.86Z" fill="white"/>
<path d="M1139.93 108.86C1139.93 110.025 1139.05 110.898 1137.89 110.898C1136.72 110.898 1135.85 110.025 1135.85 108.86C1135.85 107.696 1136.72 106.822 1137.89 106.822C1139.05 106.822 1139.93 107.793 1139.93 108.86Z" fill="white"/>
<path d="M1157.22 108.86C1157.22 110.025 1156.35 110.898 1155.18 110.898C1154.02 110.898 1153.14 110.025 1153.14 108.86C1153.14 107.696 1154.02 106.822 1155.18 106.822C1156.35 106.822 1157.22 107.793 1157.22 108.86Z" fill="white"/>
<path d="M1174.61 108.86C1174.61 110.025 1173.74 110.898 1172.57 110.898C1171.41 110.898 1170.53 110.025 1170.53 108.86C1170.53 107.696 1171.41 106.822 1172.57 106.822C1173.74 106.822 1174.61 107.793 1174.61 108.86Z" fill="white"/>
<path d="M1192 108.86C1192 110.025 1191.13 110.898 1189.96 110.898C1188.79 110.898 1187.92 110.025 1187.92 108.86C1187.92 107.696 1188.79 106.822 1189.96 106.822C1191.03 106.822 1192 107.793 1192 108.86Z" fill="white"/>
<path d="M1053.08 123.319C1053.08 124.484 1052.21 125.357 1051.04 125.357C1049.87 125.357 1049 124.484 1049 123.319C1049 122.155 1049.87 121.281 1051.04 121.281C1052.21 121.281 1053.08 122.155 1053.08 123.319Z" fill="white"/>
<path d="M1070.47 123.319C1070.47 124.484 1069.6 125.357 1068.43 125.357C1067.26 125.357 1066.39 124.484 1066.39 123.319C1066.39 122.155 1067.26 121.281 1068.43 121.281C1069.5 121.281 1070.47 122.155 1070.47 123.319Z" fill="white"/>
<path d="M1087.76 123.319C1087.76 124.484 1086.89 125.357 1085.72 125.357C1084.56 125.357 1083.68 124.484 1083.68 123.319C1083.68 122.155 1084.56 121.281 1085.72 121.281C1086.89 121.281 1087.76 122.155 1087.76 123.319Z" fill="white"/>
<path d="M1105.15 123.319C1105.15 124.484 1104.28 125.357 1103.11 125.357C1101.95 125.357 1101.07 124.484 1101.07 123.319C1101.07 122.155 1101.95 121.281 1103.11 121.281C1104.28 121.281 1105.15 122.155 1105.15 123.319Z" fill="white"/>
<path d="M1122.54 123.319C1122.54 124.484 1121.67 125.357 1120.5 125.357C1119.33 125.357 1118.46 124.484 1118.46 123.319C1118.46 122.155 1119.33 121.281 1120.5 121.281C1121.57 121.281 1122.54 122.155 1122.54 123.319Z" fill="white"/>
<path d="M1139.93 123.319C1139.93 124.484 1139.05 125.357 1137.89 125.357C1136.72 125.357 1135.85 124.484 1135.85 123.319C1135.85 122.155 1136.72 121.281 1137.89 121.281C1139.05 121.281 1139.93 122.155 1139.93 123.319Z" fill="white"/>
<path d="M1157.22 123.319C1157.22 124.484 1156.35 125.357 1155.18 125.357C1154.02 125.357 1153.14 124.484 1153.14 123.319C1153.14 122.155 1154.02 121.281 1155.18 121.281C1156.35 121.281 1157.22 122.155 1157.22 123.319Z" fill="white"/>
<path d="M1174.61 123.319C1174.61 124.484 1173.74 125.357 1172.57 125.357C1171.41 125.357 1170.53 124.484 1170.53 123.319C1170.53 122.155 1171.41 121.281 1172.57 121.281C1173.74 121.281 1174.61 122.155 1174.61 123.319Z" fill="white"/>
<path d="M1192 123.319C1192 124.484 1191.13 125.357 1189.96 125.357C1188.79 125.357 1187.92 124.484 1187.92 123.319C1187.92 122.155 1188.79 121.281 1189.96 121.281C1191.03 121.281 1192 122.155 1192 123.319Z" fill="white"/>
<path d="M1053.08 80.0379C1053.08 81.2024 1052.21 82.0758 1051.04 82.0758C1049.87 82.0758 1049 81.2024 1049 80.0379C1049 78.8734 1049.87 78 1051.04 78C1052.21 78 1053.08 78.8734 1053.08 80.0379Z" fill="white"/>
<path d="M1070.47 80.0379C1070.47 81.2024 1069.6 82.0758 1068.43 82.0758C1067.26 82.0758 1066.39 81.2024 1066.39 80.0379C1066.39 78.8734 1067.26 78 1068.43 78C1069.5 78 1070.47 78.8734 1070.47 80.0379Z" fill="white"/>
<path d="M1087.76 80.0379C1087.76 81.2024 1086.89 82.0758 1085.72 82.0758C1084.56 82.0758 1083.68 81.2024 1083.68 80.0379C1083.68 78.8734 1084.65 78 1085.72 78C1086.89 78 1087.76 78.8734 1087.76 80.0379Z" fill="white"/>
<path d="M1105.15 80.0379C1105.15 81.2024 1104.28 82.0758 1103.11 82.0758C1101.95 82.0758 1101.07 81.2024 1101.07 80.0379C1101.07 78.8734 1102.04 78 1103.11 78C1104.18 78 1105.15 78.8734 1105.15 80.0379Z" fill="white"/>
<path d="M1122.54 80.0379C1122.54 81.2024 1121.67 82.0758 1120.5 82.0758C1119.33 82.0758 1118.46 81.2024 1118.46 80.0379C1118.46 78.8734 1119.33 78 1120.5 78C1121.57 78 1122.54 78.8734 1122.54 80.0379Z" fill="white"/>
<path d="M1139.93 80.0379C1139.93 81.2024 1139.05 82.0758 1137.89 82.0758C1136.72 82.0758 1135.85 81.2024 1135.85 80.0379C1135.85 78.8734 1136.72 78 1137.89 78C1139.05 78 1139.93 78.8734 1139.93 80.0379Z" fill="white"/>
<path d="M1157.22 80.0379C1157.22 81.2024 1156.35 82.0758 1155.18 82.0758C1154.02 82.0758 1153.14 81.2024 1153.14 80.0379C1153.14 78.8734 1154.02 78 1155.18 78C1156.35 78 1157.22 78.8734 1157.22 80.0379Z" fill="white"/>
<path d="M1174.61 80.0379C1174.61 81.2024 1173.74 82.0758 1172.57 82.0758C1171.41 82.0758 1170.53 81.2024 1170.53 80.0379C1170.53 78.8734 1171.41 78 1172.57 78C1173.74 78 1174.61 78.8734 1174.61 80.0379Z" fill="white"/>
<path d="M1192 80.0379C1192 81.2024 1191.13 82.0758 1189.96 82.0758C1188.79 82.0758 1187.92 81.2024 1187.92 80.0379C1187.92 78.8734 1188.79 78 1189.96 78C1191.03 78 1192 78.8734 1192 80.0379Z" fill="white"/>
<path d="M1053.08 94.4969C1053.08 95.6614 1052.21 96.5348 1051.04 96.5348C1049.87 96.5348 1049 95.5643 1049 94.4969C1049 93.3324 1049.87 92.459 1051.04 92.459C1052.21 92.459 1053.08 93.3324 1053.08 94.4969Z" fill="white"/>
<path d="M1070.47 94.4969C1070.47 95.6614 1069.6 96.5348 1068.43 96.5348C1067.26 96.5348 1066.39 95.6614 1066.39 94.4969C1066.39 93.3324 1067.26 92.459 1068.43 92.459C1069.5 92.459 1070.47 93.3324 1070.47 94.4969Z" fill="white"/>
<path d="M1087.76 94.4969C1087.76 95.6614 1086.89 96.5348 1085.72 96.5348C1084.56 96.5348 1083.68 95.6614 1083.68 94.4969C1083.68 93.3324 1084.56 92.459 1085.72 92.459C1086.89 92.459 1087.76 93.3324 1087.76 94.4969Z" fill="white"/>
<path d="M1105.15 94.4969C1105.15 95.6614 1104.28 96.5348 1103.11 96.5348C1101.95 96.5348 1101.07 95.6614 1101.07 94.4969C1101.07 93.3324 1101.95 92.459 1103.11 92.459C1104.28 92.459 1105.15 93.3324 1105.15 94.4969Z" fill="white"/>
<path d="M1122.54 94.4969C1122.54 95.6614 1121.67 96.5348 1120.5 96.5348C1119.33 96.5348 1118.46 95.6614 1118.46 94.4969C1118.46 93.3324 1119.33 92.459 1120.5 92.459C1121.57 92.459 1122.54 93.3324 1122.54 94.4969Z" fill="white"/>
<path d="M1139.93 94.4969C1139.93 95.6614 1139.05 96.5348 1137.89 96.5348C1136.72 96.5348 1135.85 95.6614 1135.85 94.4969C1135.85 93.3324 1136.72 92.459 1137.89 92.459C1139.05 92.459 1139.93 93.3324 1139.93 94.4969Z" fill="white"/>
<path d="M1157.22 94.4969C1157.22 95.6614 1156.35 96.5348 1155.18 96.5348C1154.02 96.5348 1153.14 95.6614 1153.14 94.4969C1153.14 93.3324 1154.02 92.459 1155.18 92.459C1156.35 92.459 1157.22 93.3324 1157.22 94.4969Z" fill="white"/>
<path d="M1174.61 94.4969C1174.61 95.6614 1173.74 96.5348 1172.57 96.5348C1171.41 96.5348 1170.53 95.6614 1170.53 94.4969C1170.53 93.3324 1171.41 92.459 1172.57 92.459C1173.74 92.459 1174.61 93.3324 1174.61 94.4969Z" fill="white"/>
<path d="M1192 94.4969C1192 95.6614 1191.13 96.5348 1189.96 96.5348C1188.79 96.5348 1187.92 95.6614 1187.92 94.4969C1187.92 93.3324 1188.79 92.459 1189.96 92.459C1191.03 92.459 1192 93.3324 1192 94.4969Z" fill="white"/>
<path d="M1053.08 137.68C1053.08 138.845 1052.21 139.718 1051.04 139.718C1049.87 139.718 1049 138.845 1049 137.68C1049 136.516 1049.87 135.643 1051.04 135.643C1052.21 135.643 1053.08 136.613 1053.08 137.68Z" fill="white"/>
<path d="M1070.47 137.68C1070.47 138.845 1069.6 139.718 1068.43 139.718C1067.26 139.718 1066.39 138.845 1066.39 137.68C1066.39 136.516 1067.26 135.643 1068.43 135.643C1069.5 135.643 1070.47 136.613 1070.47 137.68Z" fill="white"/>
<path d="M1087.76 137.68C1087.76 138.845 1086.89 139.718 1085.72 139.718C1084.56 139.718 1083.68 138.845 1083.68 137.68C1083.68 136.516 1084.56 135.643 1085.72 135.643C1086.89 135.643 1087.76 136.613 1087.76 137.68Z" fill="white"/>
<path d="M1105.15 137.68C1105.15 138.845 1104.28 139.718 1103.11 139.718C1101.95 139.718 1101.07 138.845 1101.07 137.68C1101.07 136.516 1101.95 135.643 1103.11 135.643C1104.28 135.643 1105.15 136.613 1105.15 137.68Z" fill="white"/>
<path d="M1122.54 137.68C1122.54 138.845 1121.67 139.718 1120.5 139.718C1119.33 139.718 1118.46 138.845 1118.46 137.68C1118.46 136.516 1119.33 135.643 1120.5 135.643C1121.57 135.643 1122.54 136.613 1122.54 137.68Z" fill="white"/>
<path d="M1139.93 137.68C1139.93 138.845 1139.05 139.718 1137.89 139.718C1136.72 139.718 1135.85 138.845 1135.85 137.68C1135.85 136.516 1136.72 135.643 1137.89 135.643C1139.05 135.643 1139.93 136.613 1139.93 137.68Z" fill="white"/>
<path d="M1157.22 137.68C1157.22 138.845 1156.35 139.718 1155.18 139.718C1154.02 139.718 1153.14 138.845 1153.14 137.68C1153.14 136.516 1154.02 135.643 1155.18 135.643C1156.35 135.643 1157.22 136.613 1157.22 137.68Z" fill="white"/>
<path d="M1174.61 137.68C1174.61 138.845 1173.74 139.718 1172.57 139.718C1171.41 139.718 1170.53 138.845 1170.53 137.68C1170.53 136.516 1171.41 135.643 1172.57 135.643C1173.74 135.643 1174.61 136.613 1174.61 137.68Z" fill="white"/>
<path d="M1192 137.68C1192 138.845 1191.13 139.718 1189.96 139.718C1188.79 139.718 1187.92 138.845 1187.92 137.68C1187.92 136.516 1188.79 135.643 1189.96 135.643C1191.03 135.643 1192 136.613 1192 137.68Z" fill="white"/>
<path d="M1053.08 152.139C1053.08 153.304 1052.21 154.177 1051.04 154.177C1049.87 154.177 1049 153.304 1049 152.139C1049 150.975 1049.87 150.102 1051.04 150.102C1052.21 150.102 1053.08 150.975 1053.08 152.139Z" fill="white"/>
<path d="M1070.47 152.139C1070.47 153.304 1069.6 154.177 1068.43 154.177C1067.26 154.177 1066.39 153.304 1066.39 152.139C1066.39 150.975 1067.26 150.102 1068.43 150.102C1069.5 150.102 1070.47 150.975 1070.47 152.139Z" fill="white"/>
<path d="M1087.76 152.139C1087.76 153.304 1086.89 154.177 1085.72 154.177C1084.56 154.177 1083.68 153.304 1083.68 152.139C1083.68 150.975 1084.56 150.102 1085.72 150.102C1086.89 150.102 1087.76 150.975 1087.76 152.139Z" fill="white"/>
<path d="M1103.11 154.177C1104.24 154.177 1105.15 153.265 1105.15 152.139C1105.15 151.014 1104.24 150.102 1103.11 150.102C1101.98 150.102 1101.07 151.014 1101.07 152.139C1101.07 153.265 1101.98 154.177 1103.11 154.177Z" fill="white"/>
<path d="M1122.54 152.139C1122.54 153.304 1121.67 154.177 1120.5 154.177C1119.33 154.177 1118.46 153.304 1118.46 152.139C1118.46 150.975 1119.33 150.102 1120.5 150.102C1121.57 150.102 1122.54 150.975 1122.54 152.139Z" fill="white"/>
<path d="M1139.93 152.139C1139.93 153.304 1139.05 154.177 1137.89 154.177C1136.72 154.177 1135.85 153.304 1135.85 152.139C1135.85 150.975 1136.72 150.102 1137.89 150.102C1139.05 150.102 1139.93 150.975 1139.93 152.139Z" fill="white"/>
<path d="M1157.22 152.139C1157.22 153.304 1156.35 154.177 1155.18 154.177C1154.02 154.177 1153.14 153.304 1153.14 152.139C1153.14 150.975 1154.02 150.102 1155.18 150.102C1156.35 150.102 1157.22 150.975 1157.22 152.139Z" fill="white"/>
<path d="M1172.57 154.177C1173.7 154.177 1174.61 153.265 1174.61 152.139C1174.61 151.014 1173.7 150.102 1172.57 150.102C1171.44 150.102 1170.53 151.014 1170.53 152.139C1170.53 153.265 1171.44 154.177 1172.57 154.177Z" fill="white"/>
<path d="M1192 152.139C1192 153.304 1191.13 154.177 1189.96 154.177C1188.79 154.177 1187.92 153.304 1187.92 152.139C1187.92 150.975 1188.79 150.102 1189.96 150.102C1191.03 150.102 1192 150.975 1192 152.139Z" fill="white"/>
<path d="M1053.08 166.6C1053.08 167.765 1052.21 168.638 1051.04 168.638C1049.87 168.638 1049 167.765 1049 166.6C1049 165.436 1049.87 164.562 1051.04 164.562C1052.21 164.562 1053.08 165.436 1053.08 166.6Z" fill="white"/>
<path d="M1070.47 166.6C1070.47 167.765 1069.6 168.638 1068.43 168.638C1067.26 168.638 1066.39 167.765 1066.39 166.6C1066.39 165.436 1067.26 164.562 1068.43 164.562C1069.5 164.562 1070.47 165.436 1070.47 166.6Z" fill="white"/>
<path d="M1087.76 166.6C1087.76 167.765 1086.89 168.638 1085.72 168.638C1084.56 168.638 1083.68 167.765 1083.68 166.6C1083.68 165.436 1084.56 164.562 1085.72 164.562C1086.89 164.562 1087.76 165.436 1087.76 166.6Z" fill="white"/>
<path d="M1105.15 166.6C1105.15 167.765 1104.28 168.638 1103.11 168.638C1101.95 168.638 1101.07 167.765 1101.07 166.6C1101.07 165.436 1101.95 164.562 1103.11 164.562C1104.28 164.562 1105.15 165.436 1105.15 166.6Z" fill="white"/>
<path d="M1122.54 166.6C1122.54 167.765 1121.67 168.638 1120.5 168.638C1119.33 168.638 1118.46 167.765 1118.46 166.6C1118.46 165.436 1119.33 164.562 1120.5 164.562C1121.57 164.562 1122.54 165.436 1122.54 166.6Z" fill="white"/>
<path d="M1139.93 166.6C1139.93 167.765 1139.05 168.638 1137.89 168.638C1136.72 168.638 1135.85 167.765 1135.85 166.6C1135.85 165.436 1136.72 164.562 1137.89 164.562C1139.05 164.562 1139.93 165.436 1139.93 166.6Z" fill="white"/>
<path d="M1157.22 166.6C1157.22 167.765 1156.35 168.638 1155.18 168.638C1154.02 168.638 1153.14 167.765 1153.14 166.6C1153.14 165.436 1154.02 164.562 1155.18 164.562C1156.35 164.562 1157.22 165.436 1157.22 166.6Z" fill="white"/>
<path d="M1174.61 166.6C1174.61 167.765 1173.74 168.638 1172.57 168.638C1171.41 168.638 1170.53 167.765 1170.53 166.6C1170.53 165.436 1171.41 164.562 1172.57 164.562C1173.74 164.562 1174.61 165.436 1174.61 166.6Z" fill="white"/>
<path d="M1192 166.6C1192 167.765 1191.13 168.638 1189.96 168.638C1188.79 168.638 1187.92 167.765 1187.92 166.6C1187.92 165.436 1188.79 164.562 1189.96 164.562C1191.03 164.562 1192 165.436 1192 166.6Z" fill="white"/>
<path d="M1053.08 180.962C1053.08 182.126 1052.21 183 1051.04 183C1049.87 183 1049 182.126 1049 180.962C1049 179.797 1049.87 178.924 1051.04 178.924C1052.21 178.924 1053.08 179.894 1053.08 180.962Z" fill="white"/>
<path d="M1070.47 180.962C1070.47 182.126 1069.6 183 1068.43 183C1067.26 183 1066.39 182.126 1066.39 180.962C1066.39 179.797 1067.26 178.924 1068.43 178.924C1069.5 178.924 1070.47 179.894 1070.47 180.962Z" fill="white"/>
<path d="M1087.76 180.962C1087.76 182.126 1086.89 183 1085.72 183C1084.56 183 1083.68 182.126 1083.68 180.962C1083.68 179.797 1084.56 178.924 1085.72 178.924C1086.89 178.924 1087.76 179.894 1087.76 180.962Z" fill="white"/>
<path d="M1105.15 180.962C1105.15 182.126 1104.28 183 1103.11 183C1101.95 183 1101.07 182.126 1101.07 180.962C1101.07 179.797 1101.95 178.924 1103.11 178.924C1104.28 178.924 1105.15 179.894 1105.15 180.962Z" fill="white"/>
<path d="M1122.54 180.962C1122.54 182.126 1121.67 183 1120.5 183C1119.33 183 1118.46 182.126 1118.46 180.962C1118.46 179.797 1119.33 178.924 1120.5 178.924C1121.57 178.924 1122.54 179.894 1122.54 180.962Z" fill="white"/>
<path d="M1139.93 180.962C1139.93 182.126 1139.05 183 1137.89 183C1136.72 183 1135.85 182.126 1135.85 180.962C1135.85 179.797 1136.72 178.924 1137.89 178.924C1139.05 178.924 1139.93 179.894 1139.93 180.962Z" fill="white"/>
<path d="M1157.22 180.962C1157.22 182.126 1156.35 183 1155.18 183C1154.02 183 1153.14 182.126 1153.14 180.962C1153.14 179.797 1154.02 178.924 1155.18 178.924C1156.35 178.924 1157.22 179.894 1157.22 180.962Z" fill="white"/>
<path d="M1174.61 180.962C1174.61 182.126 1173.74 183 1172.57 183C1171.41 183 1170.53 182.126 1170.53 180.962C1170.53 179.797 1171.41 178.924 1172.57 178.924C1173.74 178.924 1174.61 179.894 1174.61 180.962Z" fill="white"/>
<path d="M1192 180.962C1192 182.126 1191.13 183 1189.96 183C1188.79 183 1187.92 182.126 1187.92 180.962C1187.92 179.797 1188.79 178.924 1189.96 178.924C1191.03 178.924 1192 179.894 1192 180.962Z" fill="white"/>
</g>
<path opacity="0.6" d="M41 33.9782C31.6376 43.3406 16.3842 43.3406 7.02181 33.9782C-2.3406 24.6158 -2.3406 9.36241 7.02181 0L41 33.9782Z" fill="white"/>
<defs>
<clipPath id="clip0_2502_456">
<rect width="143" height="105" fill="white" transform="translate(1049 78)"/>
</clipPath>
</defs>
</svg>
